<svg width="330" height="363" viewBox="0 0 330 363" fill="none" xmlns="http://www.w3.org/2000/svg">
<path d="M149.087 0.488099C152.851 2.62096 156.498 4.90082 160.13 7.24982C167.269 11.811 174.45 16.292 181.693 20.6873C182.641 21.2631 183.59 21.8389 184.567 22.4322C187.629 24.2895 190.692 26.1448 193.755 27.9998C213.956 40.2384 234.133 52.5029 254.064 65.1783C259.042 68.3286 264.059 71.4111 269.099 74.4608C269.736 74.8461 270.372 75.2314 271.028 75.6284C274.212 77.5537 277.399 79.4743 280.59 81.3895C281.761 82.0955 282.932 82.8015 284.103 83.5076C285.145 84.133 286.186 84.7583 287.259 85.4026C289.755 86.9998 289.755 86.9998 291.755 88.9998C291.961 91.9454 291.961 91.9454 291.899 95.8033C291.891 96.5111 291.883 97.219 291.874 97.9483C291.844 100.333 291.8 102.717 291.757 105.101C291.733 106.806 291.711 108.511 291.69 110.216C291.656 112.944 291.62 115.673 291.581 118.401C291.485 125.177 291.422 131.953 291.381 138.73C291.375 139.713 291.369 140.697 291.363 141.709C291.339 145.768 291.315 149.826 291.292 153.884C291.226 165.403 291.126 176.919 290.929 188.436C290.773 197.582 290.688 206.725 290.686 215.871C290.682 220.711 290.642 225.545 290.517 230.383C289.117 249.351 289.117 249.351 294.699 266.755C299.321 270.978 304.395 273.25 310.307 275.14C314.003 276.438 316.984 278.419 320.255 280.562C321.235 281.162 322.215 281.761 323.224 282.379C325.488 283.829 327.632 285.352 329.755 287C328.267 290.912 326.21 292.263 322.654 294.355C321.613 294.974 320.573 295.593 319.501 296.231C318.388 296.876 317.276 297.522 316.13 298.187C315.002 298.849 313.874 299.511 312.711 300.193C310.446 301.519 308.178 302.84 305.908 304.157C303.168 305.758 300.455 307.394 297.751 309.055C296.357 309.891 294.963 310.727 293.568 311.562C292.953 311.95 292.338 312.338 291.704 312.737C288.788 314.439 287.172 315.068 283.802 314.515C280.065 312.656 276.652 310.517 273.193 308.187C271.676 307.187 270.157 306.188 268.638 305.191C267.444 304.406 267.444 304.406 266.225 303.606C252.228 294.504 237.827 286.044 223.44 277.582C215.846 273.107 208.287 268.577 200.755 264C199.87 263.464 198.984 262.928 198.072 262.375C195.418 260.762 192.773 259.133 190.13 257.5C188.912 256.761 188.912 256.761 187.669 256.007C186.547 255.308 186.547 255.308 185.404 254.594C184.745 254.188 184.087 253.783 183.409 253.365C181.485 251.776 180.714 250.281 179.755 248C189.422 241.877 199.162 235.876 208.943 229.937C210.029 229.27 211.116 228.603 212.235 227.916C213.267 227.292 214.298 226.669 215.361 226.027C216.74 225.188 216.74 225.188 218.147 224.332C220.759 222.998 222.846 222.314 225.755 222C227.923 222.996 227.923 222.996 229.943 224.437C232.601 226.476 232.601 226.476 235.755 227C235.755 190.04 235.755 153.08 235.755 115C234.105 114.34 232.455 113.68 230.755 113C229.322 112.198 227.909 111.359 226.517 110.488C225.71 109.985 224.902 109.483 224.07 108.965C223.203 108.42 222.336 107.874 221.443 107.312C220.524 106.739 219.606 106.166 218.659 105.576C215.688 103.721 212.722 101.861 209.755 99.9998C205.798 97.5195 201.839 95.0406 197.88 92.5623C196.886 91.9394 195.892 91.3164 194.868 90.6746C186.823 85.6423 178.724 80.703 170.594 75.8104C164.579 72.1735 158.783 68.3814 153.158 64.16C149.915 62.5938 148.233 63.1849 144.755 63.9998C141.986 65.2132 141.986 65.2132 139.247 66.8162C138.192 67.4077 137.137 67.9993 136.049 68.6087C134.921 69.2534 133.793 69.8981 132.63 70.5623C131.438 71.2351 130.246 71.9071 129.053 72.5784C125.916 74.3477 122.785 76.1287 119.657 77.9143C117.776 78.9879 115.895 80.0597 114.013 81.1312C108.167 84.4603 102.327 87.799 96.4936 91.1483C91.4542 94.0371 86.3984 96.8956 81.3341 99.7405C80.235 100.358 80.235 100.358 79.1138 100.989C77.3277 101.993 75.5415 102.996 73.7553 104C73.5216 123.306 73.3453 142.612 73.2372 161.919C73.1856 170.884 73.1154 179.848 73.0009 188.812C72.9011 196.626 72.8367 204.44 72.8144 212.255C72.8014 216.393 72.7708 220.529 72.698 224.666C72.6299 228.562 72.6092 232.457 72.6242 236.354C72.6215 237.782 72.6016 239.209 72.5632 240.636C72.212 248.659 72.212 248.659 75.9421 255.372C78.4764 257.171 80.9761 258.618 83.7553 260C84.8419 260.693 85.9286 261.387 87.0482 262.101C88.0034 262.675 88.9586 263.249 89.9428 263.84C91.0412 264.502 92.1397 265.165 93.2714 265.848C93.8392 266.189 94.4071 266.529 94.9921 266.88C98.0607 268.72 101.122 270.572 104.185 272.422C104.811 272.799 105.437 273.177 106.082 273.566C113.77 278.208 121.411 282.927 129.052 287.646C131.02 288.86 132.99 290.07 134.963 291.275C136.837 292.433 138.696 293.616 140.539 294.823C141.412 295.383 142.285 295.942 143.185 296.519C143.948 297.022 144.711 297.524 145.497 298.042C148.446 299.293 149.734 299.017 152.755 298C154.712 296.946 156.625 295.811 158.501 294.621C159.586 293.947 160.671 293.274 161.788 292.58C163.494 291.509 165.197 290.435 166.896 289.354C168.549 288.306 170.213 287.276 171.876 286.246C172.86 285.624 173.845 285.002 174.859 284.361C178.133 282.822 180.179 282.616 183.755 283C185.979 284.226 187.855 285.441 189.88 286.937C198.116 292.733 206.712 297.898 215.342 303.077C216.569 303.814 217.796 304.551 219.022 305.29C220.67 306.281 222.319 307.269 223.969 308.257C226.337 309.738 228.557 311.281 230.755 313C230.553 314.799 230.553 314.799 229.755 317C227.712 318.625 227.712 318.625 224.997 320.215C223.992 320.811 222.986 321.408 221.949 322.023C220.854 322.655 219.759 323.286 218.63 323.937C217.5 324.603 216.369 325.268 215.204 325.953C207.09 330.718 198.899 335.349 190.671 339.912C185.13 343.008 179.707 346.245 174.337 349.625C173.065 350.42 171.793 351.215 170.52 352.01C168.051 353.554 165.601 355.122 163.156 356.704C162.023 357.416 160.89 358.126 159.755 358.836C158.765 359.47 157.775 360.105 156.755 360.759C152.898 362.354 150.77 362.031 146.755 361C143.939 359.64 143.939 359.64 141.193 357.894C140.16 357.248 139.128 356.601 138.064 355.934C136.972 355.234 135.88 354.534 134.755 353.812C133.6 353.084 132.445 352.357 131.288 351.632C128.923 350.147 126.561 348.657 124.2 347.164C119.114 343.958 113.964 340.858 108.818 337.75C98.7187 331.621 88.7225 325.34 78.7553 319C67.0312 311.548 55.2431 304.209 43.4032 296.942C34.4602 291.448 25.5694 285.876 16.7133 280.242C14.8844 279.082 13.0514 277.928 11.2162 276.777C10.2185 276.149 9.22074 275.522 8.19277 274.875C6.95334 274.098 6.95334 274.098 5.68886 273.305C3.75527 272 3.75527 272 1.75527 270C1.55164 267.396 1.47206 264.898 1.48061 262.293C1.4755 261.498 1.47039 260.702 1.46512 259.883C1.45119 257.246 1.45219 254.609 1.45449 251.972C1.4506 250.144 1.44627 248.316 1.4415 246.487C1.43403 242.651 1.43434 238.815 1.4396 234.98C1.44539 230.059 1.42846 225.138 1.40525 220.217C1.39053 216.44 1.38964 212.663 1.39277 208.885C1.39225 207.071 1.38698 205.256 1.37694 203.442C1.36464 200.906 1.37134 198.372 1.38295 195.836C1.37531 195.083 1.36767 194.33 1.35979 193.555C1.41142 188.468 1.41142 188.468 3.1617 186.087C4.97733 184.848 6.78727 183.68 8.69668 182.59C9.44498 182.157 10.1933 181.725 10.9643 181.279C11.7409 180.836 12.5176 180.394 13.3178 179.937C14.8624 179.053 16.4054 178.167 17.9467 177.277C18.6293 176.888 19.312 176.498 20.0153 176.097C21.9116 174.991 21.9116 174.991 23.7553 173C24.0013 169.991 24.1291 167.068 24.1693 164.055C24.1887 163.169 24.2081 162.284 24.228 161.373C24.2879 158.54 24.3342 155.708 24.3803 152.875C24.4184 150.957 24.4575 149.039 24.4975 147.121C24.5936 142.414 24.6776 137.707 24.7553 133C23.9766 133.462 23.9766 133.462 23.1823 133.934C20.8193 135.325 18.444 136.694 16.0678 138.062C15.2511 138.548 14.4345 139.033 13.5932 139.533C12.7972 139.987 12.0012 140.442 11.1811 140.91C10.4531 141.334 9.72521 141.758 8.97524 142.195C6.20015 143.201 4.58348 142.659 1.75527 142C1.40621 134.595 1.1405 127.191 0.978093 119.779C0.90009 116.336 0.794585 112.899 0.623677 109.459C-0.44973 87.2842 -0.44973 87.2842 3.16518 81.8997C6.58512 78.7249 10.4036 77.0521 14.8115 75.6586C17.9579 74.5922 20.7247 72.979 23.6303 71.3748C24.3013 71.0241 24.9723 70.6734 25.6637 70.3121C32.8793 66.4959 39.8155 62.2067 46.7975 57.9839C56.5728 52.0813 66.4514 46.3708 76.3529 40.6834C82.5036 37.1503 88.6321 33.5802 94.7553 29.9998C104.384 24.373 114.026 18.7679 123.701 13.2208C128.275 10.5977 132.839 7.97142 137.329 5.20685C137.978 4.81417 138.626 4.42149 139.294 4.01691C140.91 3.0333 142.515 2.0312 144.119 1.02716C146.755 -0.000181973 146.755 -0.000181973 149.087 0.488099Z" fill="#CEAE5F"/>
<path d="M72.7552 106C72.7512 106.751 72.7471 107.502 72.7429 108.276C72.6474 126.563 72.6072 144.849 72.6283 163.137C72.6371 171.98 72.6274 180.823 72.5736 189.667C72.5267 197.376 72.515 205.084 72.5453 212.793C72.5601 216.875 72.5575 220.955 72.5127 225.036C72.4711 228.881 72.4766 232.723 72.5177 236.567C72.5246 237.975 72.5145 239.384 72.4858 240.791C72.2024 248.736 72.2024 248.736 75.9476 255.361C78.4801 257.158 80.9817 258.612 83.7552 260C84.8419 260.693 85.9286 261.387 87.0482 262.101C88.0034 262.675 88.9586 263.249 89.9427 263.84C91.0412 264.503 92.1396 265.165 93.2713 265.848C93.8392 266.189 94.407 266.529 94.9921 266.88C98.0607 268.72 101.122 270.572 104.185 272.422C104.811 272.8 105.437 273.177 106.082 273.566C113.77 278.209 121.411 282.927 129.052 287.646C131.02 288.86 132.99 290.07 134.963 291.275C136.837 292.433 138.696 293.616 140.539 294.823C141.412 295.383 142.285 295.943 143.185 296.52C143.948 297.022 144.711 297.524 145.497 298.042C148.446 299.293 149.734 299.017 152.755 298C154.711 296.946 156.625 295.811 158.501 294.621C159.586 293.948 160.671 293.274 161.788 292.58C163.494 291.509 165.197 290.435 166.896 289.354C168.549 288.306 170.213 287.276 171.876 286.246C172.86 285.624 173.845 285.002 174.858 284.361C178.133 282.822 180.179 282.616 183.755 283C185.979 284.226 187.855 285.441 189.88 286.937C198.116 292.734 206.712 297.898 215.341 303.077C216.569 303.814 217.796 304.551 219.022 305.29C220.67 306.281 222.319 307.27 223.969 308.258C226.336 309.738 228.557 311.281 230.755 313C230.553 314.799 230.553 314.799 229.755 317C227.712 318.625 227.712 318.625 224.997 320.215C223.992 320.811 222.986 321.408 221.949 322.023C220.854 322.655 219.759 323.287 218.63 323.937C217.499 324.603 216.369 325.268 215.204 325.954C207.09 330.719 198.899 335.349 190.671 339.912C185.13 343.008 179.707 346.245 174.337 349.625C173.065 350.42 171.793 351.215 170.52 352.01C168.051 353.554 165.601 355.122 163.156 356.705C162.023 357.416 160.89 358.126 159.755 358.836C158.765 359.471 157.775 360.105 156.755 360.759C152.898 362.354 150.77 362.031 146.755 361C143.939 359.64 143.939 359.64 141.193 357.895C140.16 357.248 139.128 356.601 138.064 355.935C136.972 355.234 135.88 354.534 134.755 353.812C133.6 353.084 132.445 352.357 131.288 351.632C128.923 350.147 126.561 348.657 124.2 347.165C119.114 343.958 113.964 340.858 108.818 337.75C98.7186 331.621 88.7224 325.34 78.7552 319C67.0312 311.548 55.243 304.209 43.4032 296.943C34.4601 291.448 25.5694 285.876 16.7132 280.243C14.8843 279.082 13.0513 277.928 11.2162 276.777C10.2184 276.15 9.22069 275.522 8.19272 274.875C7.36643 274.357 6.54014 273.839 5.68881 273.305C3.75522 272 3.75522 272 1.75522 270C1.55159 267.396 1.47201 264.898 1.48056 262.293C1.47289 261.1 1.47289 261.1 1.46507 259.883C1.45114 257.246 1.45214 254.61 1.45444 251.973C1.45055 250.144 1.44622 248.316 1.44145 246.487C1.43398 242.651 1.43429 238.816 1.43954 234.98C1.44534 230.059 1.42841 225.138 1.4052 220.217C1.39048 216.44 1.38959 212.663 1.39271 208.886C1.39219 207.071 1.38694 205.257 1.3769 203.442C1.36459 200.907 1.37129 198.372 1.3829 195.836C1.37526 195.083 1.36762 194.33 1.35974 193.555C1.41137 188.468 1.41137 188.468 3.16165 186.087C4.97728 184.849 6.78722 183.68 8.69662 182.59C9.44493 182.157 10.1932 181.725 10.9642 181.279C12.1292 180.615 12.1292 180.615 13.3177 179.937C14.8623 179.054 16.4053 178.167 17.9466 177.277C18.6293 176.888 19.3119 176.499 20.0152 176.097C21.9115 174.991 21.9115 174.991 23.7552 173C23.8301 169.949 23.7891 166.978 23.6771 163.934C23.6487 162.067 23.624 160.201 23.6029 158.334C23.5642 155.39 23.5059 152.455 23.3817 149.513C22.7544 133.713 22.7544 133.713 26.0143 129.292C29.2429 126.353 32.9485 124.529 36.9308 122.809C39.5615 121.643 41.9744 120.158 44.4349 118.672C46.1644 117.694 47.8961 116.72 49.6302 115.75C51.3785 114.767 53.1259 113.783 54.8724 112.797C55.6971 112.335 56.5218 111.873 57.3714 111.396C60.3091 109.675 63.1032 107.773 65.8729 105.794C68.4337 104.714 70.1003 105.387 72.7552 106Z" fill="#A6803A"/>
<path d="M289.755 210C289.755 210.99 289.755 211.98 289.755 213C290.415 213 291.075 213 291.755 213C291.723 213.612 291.691 214.225 291.659 214.855C291.344 221.28 291.174 227.698 291.084 234.13C291.032 236.523 290.944 238.915 290.819 241.305C289.717 254.548 289.717 254.548 294.683 266.239C299.438 270.072 304.687 272.597 310.301 274.929C313.857 276.481 316.989 278.472 320.255 280.562C321.235 281.162 322.215 281.761 323.224 282.379C325.488 283.829 327.632 285.353 329.755 287C328.267 290.912 326.21 292.263 322.654 294.355C321.613 294.974 320.573 295.593 319.501 296.231C317.832 297.199 317.832 297.199 316.13 298.188C314.438 299.18 314.438 299.18 312.711 300.193C310.446 301.519 308.178 302.84 305.908 304.157C303.168 305.759 300.455 307.394 297.751 309.055C296.357 309.891 294.963 310.727 293.568 311.562C292.953 311.95 292.338 312.338 291.704 312.737C288.788 314.439 287.172 315.068 283.802 314.516C280.065 312.656 276.652 310.517 273.193 308.188C271.676 307.187 270.157 306.188 268.638 305.191C267.842 304.668 267.045 304.145 266.225 303.606C252.228 294.504 237.827 286.045 223.44 277.582C215.846 273.107 208.287 268.577 200.755 264C199.427 263.196 199.427 263.196 198.072 262.375C195.418 260.762 192.773 259.133 190.13 257.5C189.318 257.007 188.506 256.515 187.669 256.008C186.921 255.541 186.174 255.074 185.404 254.594C184.416 253.986 184.416 253.986 183.409 253.365C181.485 251.777 180.714 250.281 179.755 248C189.422 241.877 199.162 235.876 208.943 229.938C210.029 229.27 211.116 228.603 212.235 227.916C213.267 227.293 214.298 226.669 215.361 226.027C216.74 225.188 216.74 225.188 218.147 224.332C220.758 222.999 222.848 222.318 225.755 222C227.853 222.961 227.853 222.961 229.818 224.375C232.508 226.282 234.562 227.241 237.755 228C238.209 228.536 238.663 229.073 239.13 229.625C240.737 231.307 240.737 231.307 243.392 230.832C247.441 229.83 250.599 228.128 254.193 226.062C258.993 223.316 263.369 221.327 268.755 220C268.755 219.34 268.755 218.68 268.755 218C269.807 217.636 269.807 217.636 270.88 217.266C275.487 215.638 279.97 213.992 284.318 211.75C287.755 210 287.755 210 289.755 210Z" fill="#C6A354"/>
<path d="M72.7552 106C72.7552 153.85 72.7552 201.7 72.7552 251C69.2418 252.171 67.9795 251.495 64.6693 250.082C62.7552 249 62.7552 249 60.3568 247.047C57.7955 245.032 55.4607 243.784 52.5052 242.438C45.5508 239.063 39.2241 234.884 32.7826 230.629C28.731 227.958 24.5781 225.495 20.3451 223.121C19.8204 222.751 19.2958 222.381 18.7552 222C18.7552 221.34 18.7552 220.68 18.7552 220C18.1404 219.818 17.5255 219.637 16.892 219.449C16.0837 219.198 15.2755 218.947 14.4427 218.688C13.6422 218.444 12.8417 218.2 12.017 217.949C9.75525 217 9.75525 217 8.27478 215.457C6.25595 213.521 4.46454 213.461 1.75525 213C1.66831 208.896 1.61488 204.792 1.56775 200.688C1.54261 199.52 1.51748 198.353 1.49158 197.151C1.47708 195.473 1.47708 195.473 1.46228 193.762C1.44657 192.73 1.43086 191.699 1.41467 190.636C1.75525 188 1.75525 188 3.02722 186.291C4.86406 184.919 6.70533 183.727 8.69666 182.59C9.44496 182.158 10.1933 181.725 10.9642 181.279C12.1292 180.615 12.1292 180.615 13.3177 179.938C14.8623 179.054 16.4054 178.167 17.9467 177.277C18.6293 176.888 19.3119 176.499 20.0153 176.098C21.9115 174.991 21.9115 174.991 23.7552 173C23.8301 169.95 23.7891 166.978 23.6771 163.934C23.6487 162.067 23.6241 160.201 23.6029 158.334C23.5642 155.391 23.506 152.455 23.3817 149.514C22.7545 133.714 22.7545 133.714 26.0143 129.293C29.243 126.354 32.9485 124.529 36.9308 122.809C39.5616 121.643 41.9744 120.158 44.4349 118.672C46.1644 117.694 47.8962 116.72 49.6302 115.75C51.3785 114.767 53.126 113.783 54.8724 112.797C55.6971 112.335 56.5218 111.873 57.3715 111.397C60.3092 109.676 63.1032 107.773 65.8729 105.794C67.7552 105 67.7552 105 72.7552 106Z" fill="#C6A455"/>
<path d="M291.755 91.0002C291.755 131.26 291.755 171.52 291.755 213C291.095 213 290.435 213 289.755 213C289.755 212.01 289.755 211.02 289.755 210C288.361 210.741 288.361 210.741 286.939 211.496C285.69 212.144 284.442 212.791 283.193 213.438C282.584 213.763 281.975 214.089 281.347 214.424C277.1 216.604 273.514 217.565 268.755 218C268.755 218.66 268.755 219.32 268.755 220C267.58 220.495 266.404 220.99 265.193 221.5C262.039 222.877 259.02 224.386 256.029 226.082C255.049 226.631 255.049 226.631 254.05 227.192C252.746 227.929 251.449 228.68 250.161 229.445C247.109 231.161 245.012 232.002 241.486 231.981C238.115 230.77 237.433 230.159 235.755 227C235.315 223.771 235.366 220.564 235.399 217.31C235.397 216.327 235.395 215.345 235.393 214.332C235.39 211.081 235.408 207.83 235.427 204.578C235.43 202.316 235.432 200.054 235.433 197.792C235.437 193.048 235.452 188.303 235.474 183.559C235.502 177.488 235.513 171.418 235.518 165.347C235.522 160.674 235.532 156 235.544 151.326C235.549 149.089 235.554 146.851 235.558 144.614C235.565 141.478 235.578 138.343 235.594 135.208C235.595 134.289 235.596 133.371 235.597 132.424C235.632 127.205 235.75 122.131 236.755 117C239.786 115.289 239.786 115.289 241.704 114.673C243.927 113.944 245.807 112.974 247.849 111.836C248.562 111.44 249.275 111.045 250.01 110.637C250.751 110.221 251.492 109.804 252.255 109.375C253.036 108.94 253.816 108.505 254.62 108.057C260.397 104.815 266.096 101.456 271.72 97.9567C274.573 96.2039 277.41 94.6624 280.494 93.3712C287.946 90.2384 287.946 90.2384 291.755 91.0002Z" fill="#D5B666"/>
<path d="M154.525 179.481C158.802 181.492 162.793 183.839 166.818 186.313C168.116 187.102 168.116 187.102 169.44 187.907C172.216 189.598 174.986 191.299 177.755 193C179.632 194.146 181.508 195.292 183.384 196.438C185.217 197.562 187.049 198.687 188.88 199.813C190.139 200.584 190.139 200.584 191.423 201.37C197.354 205.038 203.08 208.949 208.755 213C207.355 216.471 206.039 217.728 202.704 219.375C201.871 219.797 201.037 220.219 200.178 220.654C198.824 221.32 198.824 221.32 197.443 222C195.532 222.969 193.623 223.942 191.716 224.918C190.732 225.421 189.748 225.925 188.735 226.443C183.944 228.947 179.253 231.618 174.568 234.313C173.733 234.791 172.898 235.27 172.037 235.764C166.966 238.687 161.957 241.695 156.988 244.79C154.804 245.973 153.225 246.75 150.755 247C148.767 246.202 148.767 246.202 146.658 244.895C145.866 244.412 145.074 243.929 144.258 243.431C143.411 242.897 142.565 242.363 141.693 241.813C140.81 241.269 139.928 240.725 139.018 240.165C136.255 238.457 133.504 236.731 130.755 235C129.072 233.948 127.388 232.896 125.704 231.844C116.34 225.972 107.04 219.998 97.7552 214C97.8451 212.242 97.8451 212.242 98.7552 210C100.931 208.525 102.995 207.324 105.318 206.125C106.775 205.34 108.23 204.552 109.685 203.762C110.489 203.328 111.293 202.894 112.121 202.447C117.115 199.704 122.024 196.813 126.943 193.938C127.977 193.338 129.012 192.738 130.077 192.12C134.435 189.583 138.766 187.04 142.97 184.254C143.562 183.865 144.154 183.477 144.764 183.077C146.245 182.09 147.708 181.078 149.169 180.063C151.755 179 151.755 179 154.525 179.481Z" fill="#B18C43"/>
<path d="M26.7553 76.8658C28.2289 77.4225 29.696 77.9978 31.1483 78.6082C31.517 78.7632 31.7553 79.1251 31.7553 79.5252C31.7553 79.7378 31.7553 79.9512 31.7553 80.1659C31.7553 80.5861 32.018 80.9615 32.4128 81.1054C32.9133 81.2878 33.4169 81.4714 33.931 81.6587C36.8589 82.9101 39.2951 84.4145 41.9428 86.1783C46.309 89.0128 50.7159 91.4128 55.3959 93.6783C60.3545 96.174 64.7683 98.8683 68.6838 102.794C68.7313 102.842 68.7834 102.885 68.8393 102.922C69.5945 103.425 70.3502 103.929 71.1197 104.442C71.4949 104.692 71.6592 105.165 71.5007 105.587C70.3392 108.682 69.1662 109.072 66.0053 110.87C65.0117 111.441 64.0182 112.012 62.9945 112.601C61.9256 113.204 60.8566 113.807 59.7553 114.428C57.5624 115.684 55.3697 116.941 53.1771 118.198C52.0898 118.817 51.0025 119.437 49.8822 120.075C44.8688 122.946 39.9029 125.896 34.935 128.845C32.103 130.517 29.2802 132.154 26.3251 133.592C25.9779 133.761 25.7553 134.112 25.7553 134.498C25.7553 134.763 25.7553 135.028 25.7553 135.296C25.7553 135.649 25.5693 135.976 25.2656 136.156C22.5444 137.767 19.8081 139.35 17.0678 140.928C16.2511 141.414 15.4345 141.899 14.5932 142.399C13.7972 142.853 13.0012 143.308 12.181 143.776C11.1154 144.397 11.0898 144.412 10.0538 145.016C10.0019 145.046 9.94592 145.072 9.88932 145.092C7.41418 145.968 5.85668 145.603 3.49133 145.04C3.0562 144.936 2.74067 144.557 2.71995 144.111C2.38825 136.957 2.13497 129.805 1.97808 122.645C1.90008 119.202 1.79458 115.765 1.62367 112.325C0.553404 90.2252 0.546911 90.0911 4.14521 84.8363C4.18819 84.7735 4.24012 84.7131 4.29643 84.662C8.23846 81.08 12.6407 79.4495 17.6725 77.8914C17.7274 77.8744 17.781 77.8526 17.8322 77.8265C18.575 77.4471 19.3184 77.0674 20.0836 76.6766C22.5795 75.466 24.1435 76.1013 26.7553 76.8658Z" fill="#FBFBFA"/>
<path d="M183.755 283C185.979 284.226 187.855 285.442 189.88 286.938C198.116 292.734 206.712 297.898 215.341 303.077C216.569 303.814 217.796 304.552 219.022 305.29C220.67 306.281 222.319 307.27 223.969 308.258C226.337 309.738 228.557 311.281 230.755 313C230.59 314.773 230.59 314.773 229.755 317C227.442 318.815 227.442 318.815 224.4 320.637C223.302 321.296 222.205 321.956 221.074 322.635C220.498 322.972 219.922 323.309 219.328 323.656C217.582 324.679 215.851 325.725 214.12 326.775C204.789 332.316 204.789 332.316 198.755 333C198.755 332.34 198.755 331.68 198.755 331C198.108 330.934 197.461 330.869 196.794 330.801C192.463 329.66 188.963 327.465 185.13 325.188C184.307 324.704 183.484 324.221 182.636 323.723C176.456 320.068 170.339 316.313 164.255 312.5C163.046 311.744 163.046 311.744 161.811 310.973C161.061 310.498 160.31 310.022 159.536 309.531C158.877 309.114 158.218 308.697 157.538 308.268C155.738 306.988 154.305 305.567 152.755 304C150.655 302.824 150.655 302.824 148.755 302C148.755 301.34 148.755 300.68 148.755 300C149.759 299.443 150.764 298.886 151.798 298.313C153.18 297.542 154.561 296.771 155.943 296C156.665 295.598 157.387 295.196 158.132 294.782C161.646 292.81 165.115 290.806 168.501 288.621C169.074 288.253 169.647 287.885 170.237 287.506C171.795 286.493 173.342 285.464 174.888 284.434C178.26 282.748 180.033 282.431 183.755 283Z" fill="#D7B86A"/>
<path d="M221.755 222C227.505 222.401 230.991 224.806 235.41 228.313C237.265 230.638 237.117 232.162 237.096 235.114C237.095 236.675 237.095 236.675 237.095 238.268C237.08 239.39 237.064 240.512 237.048 241.668C237.044 242.818 237.04 243.968 237.035 245.153C237.019 248.831 236.981 252.509 236.943 256.188C236.928 258.679 236.914 261.171 236.902 263.662C236.869 269.775 236.818 275.887 236.755 282C232.087 282.3 229.512 281.696 225.544 279.246C224.558 278.646 223.571 278.045 222.554 277.427C221.507 276.77 220.459 276.114 219.38 275.438C218.293 274.769 217.207 274.1 216.087 273.411C213.801 272.001 211.519 270.587 209.24 269.165C206.356 267.368 203.457 265.598 200.55 263.838C197.8 262.172 195.06 260.491 192.318 258.812C190.773 257.878 190.773 257.878 189.197 256.926C188.248 256.338 187.299 255.75 186.322 255.145C185.486 254.633 184.65 254.121 183.789 253.593C181.611 251.887 180.764 250.547 179.755 248C190.597 241.133 201.561 234.483 212.587 227.916C213.631 227.293 214.675 226.669 215.751 226.027C216.692 225.468 217.632 224.908 218.601 224.332C220.657 223.175 220.657 223.175 221.755 222Z" fill="#A57F3A"/>
<path d="M236.755 57C243.499 58.124 243.499 58.124 246.513 60.125C247.208 60.5762 247.903 61.0273 248.619 61.4922C249.365 61.9898 250.111 62.4873 250.88 63C256.907 66.93 262.973 70.7619 269.158 74.4375C269.791 74.8151 270.424 75.1927 271.076 75.5818C273.62 77.0996 276.165 78.6172 278.721 80.1162C280.52 81.1726 282.312 82.2413 284.103 83.3125C285.145 83.9274 286.186 84.5423 287.259 85.1758C289.757 87.0016 290.708 88.135 291.755 91C290.085 91.1856 290.085 91.1856 288.38 91.375C284.724 91.6466 284.724 91.6466 282.755 94C281.334 94.5824 279.893 95.1172 278.443 95.625C273.06 97.7183 268.415 100.555 263.54 103.629C258.99 106.496 254.384 109.262 249.755 112C248.535 112.74 248.535 112.74 247.291 113.494C246.128 114.178 246.128 114.178 244.943 114.875C244.256 115.285 243.569 115.695 242.861 116.117C240.755 117 240.755 117 235.755 117C236.25 87.3 236.25 87.3 236.755 57Z" fill="#A37D38"/>
<path d="M72.7552 106C72.7552 116.56 72.7552 127.12 72.7552 138C69.7852 138.495 69.7852 138.495 66.7552 139C66.7552 139.66 66.7552 140.32 66.7552 141C65.1328 141.838 63.5072 142.67 61.8802 143.5C60.9753 143.964 60.0704 144.428 59.1381 144.906C56.7552 146 56.7552 146 54.7552 146C54.7552 146.66 54.7552 147.32 54.7552 148C53.4661 148.671 52.1738 149.337 50.8802 150C50.161 150.371 49.4417 150.742 48.7006 151.125C46.7552 152 46.7552 152 44.7552 152C44.7552 152.66 44.7552 153.32 44.7552 154C41.7552 156 41.7552 156 37.7552 156C37.7552 156.66 37.7552 157.32 37.7552 158C34.0166 159.653 30.7383 161.004 26.7552 162C26.7552 152.1 26.7552 142.2 26.7552 132C27.4152 132 28.0752 132 28.7552 132C28.9331 131.269 29.111 130.538 29.2943 129.785C31.3312 125.902 34.4022 124.457 38.1302 122.437C39.6652 121.577 41.199 120.715 42.7318 119.851C43.5442 119.397 44.3567 118.942 45.1937 118.474C47.8872 116.924 50.5214 115.3 53.1537 113.648C54.0452 113.093 54.9368 112.539 55.8553 111.967C57.5984 110.879 59.3353 109.78 61.0653 108.672C61.8653 108.178 62.6654 107.684 63.4896 107.176C64.1931 106.731 64.8966 106.287 65.6215 105.829C67.7552 105 67.7552 105 72.7552 106Z" fill="#AB8640"/>
<path d="M289.755 210C289.755 210.99 289.755 211.98 289.755 213C290.415 213 291.075 213 291.755 213C291.755 229.83 291.755 246.66 291.755 264C288.341 264 287.413 263.398 284.568 261.625C283.681 261.076 282.794 260.527 281.88 259.961C280.849 259.314 279.818 258.667 278.755 258C277.527 257.241 276.297 256.484 275.068 255.727C267.52 251.063 260.068 246.277 252.715 241.312C250.125 239.564 247.548 237.883 244.829 236.34C244.145 235.898 243.46 235.456 242.755 235C242.755 234.34 242.755 233.68 242.755 233C243.745 232.67 244.735 232.34 245.755 232C246.183 231.558 246.611 231.116 247.052 230.66C249.427 228.345 252.089 227.007 255.005 225.438C256.104 224.838 257.202 224.239 258.333 223.621C261.825 221.967 265.026 220.951 268.755 220C268.755 219.34 268.755 218.68 268.755 218C269.456 217.758 270.158 217.515 270.88 217.266C275.487 215.638 279.97 213.992 284.318 211.75C287.755 210 287.755 210 289.755 210Z" fill="#A58039"/>
<path d="M2.75525 268C3.29794 268.349 3.84064 268.699 4.39978 269.059C5.11521 269.514 5.83064 269.969 6.56775 270.438C7.62929 271.116 7.62929 271.116 8.71228 271.809C10.8366 273.141 10.8366 273.141 13.7552 274C13.7552 274.66 13.7552 275.32 13.7552 276C15.7352 276.66 17.7152 277.32 19.7552 278C19.7552 278.66 19.7552 279.32 19.7552 280C20.7246 280.186 21.694 280.371 22.6927 280.562C27.0826 281.793 30.0103 284.404 33.4857 287.258C36.6839 289.713 40.118 291.308 43.7552 293C46.7552 294.625 46.7552 294.625 48.7552 296C48.7552 296.66 48.7552 297.32 48.7552 298C49.7453 298 50.7352 298 51.7552 298C51.7552 298.66 51.7552 299.32 51.7552 300C54.3952 300.66 57.0352 301.32 59.7552 302C59.7552 302.66 59.7552 303.32 59.7552 304C60.4152 304 61.0752 304 61.7552 304C61.7552 304.66 61.7552 305.32 61.7552 306C64.0981 307.262 66.2602 308.155 68.8177 308.938C71.7552 310 71.7552 310 73.017 311.289C75.547 313.779 78.5186 315.55 81.5052 317.438C82.1008 317.82 82.6963 318.202 83.3099 318.596C87.3894 321.196 91.5464 323.615 95.7552 326C98.3184 327.533 100.871 329.082 103.423 330.633C105.499 331.85 107.589 332.954 109.755 334C109.755 334.66 109.755 335.32 109.755 336C110.471 336.276 111.186 336.552 111.923 336.836C114.713 337.982 117.378 339.262 120.068 340.625C121.392 341.294 121.392 341.294 122.744 341.977C123.407 342.314 124.071 342.652 124.755 343C124.755 343.66 124.755 344.32 124.755 345C125.415 345.227 126.075 345.454 126.755 345.688C130.044 347.126 132.893 348.915 135.888 350.879C137.863 352.157 137.863 352.157 140.755 353C141.755 354 142.755 355 143.755 356C146.487 358.067 148.056 358.984 151.505 359.062C155.302 357.821 158.016 355.963 161.267 353.68C165.568 350.776 170.178 348.434 174.755 346C176.425 345.11 178.092 344.214 179.755 343.312C180.456 342.937 181.158 342.562 181.88 342.176C183.795 341.078 183.795 341.078 185.22 339.492C187.095 337.67 188.922 336.843 191.318 335.812C192.103 335.468 192.888 335.124 193.697 334.77C195.755 334 195.755 334 197.755 334C197.425 333.01 197.095 332.02 196.755 331C197.415 331 198.075 331 198.755 331C198.755 331.66 198.755 332.32 198.755 333C199.745 333.33 200.735 333.66 201.755 334C200.693 334.579 200.693 334.579 199.61 335.171C196.876 336.666 194.144 338.166 191.414 339.67C190.185 340.347 188.956 341.024 187.726 341.699C178.392 346.836 169.286 352.227 160.469 358.225C156.991 360.494 154.605 361.925 150.427 362.293C144.702 360.277 139.848 357.078 134.755 353.812C133.6 353.084 132.445 352.357 131.288 351.632C128.923 350.147 126.561 348.657 124.2 347.165C119.114 343.958 113.964 340.858 108.818 337.75C98.7187 331.621 88.7224 325.34 78.7552 319C67.0312 311.548 55.2431 304.21 43.4032 296.943C35.1605 291.878 26.9566 286.758 18.7982 281.559C16.2782 279.954 13.7449 278.381 11.181 276.848C10.1743 276.238 9.16751 275.628 8.13025 275C6.87341 274.258 6.87341 274.258 5.59119 273.5C3.45171 271.752 3.09256 270.698 2.75525 268Z" fill="#B78E42"/>
<path d="M142.755 4.99979C141.765 5.32979 140.775 5.65979 139.755 5.99979C139.086 7.33202 138.42 8.66547 137.755 9.99979C134.42 12.7979 131.111 14.8586 126.755 15.3123C125.765 15.1576 125.765 15.1576 124.755 14.9998C124.755 15.6598 124.755 16.3198 124.755 16.9998C119.333 21.0236 113.327 24.3294 107.4 27.5545C104.546 29.1141 101.712 30.7057 98.8788 32.3028C96.7779 33.487 94.6748 34.6672 92.5717 35.8474C90.3611 37.0898 88.1618 38.3452 85.9701 39.6209C82.5863 41.5769 79.558 43.1684 75.7552 44.1248C74.7652 44.4135 73.7752 44.7023 72.7552 44.9998C72.4252 45.9898 72.0952 46.9798 71.7552 47.9998C67.4816 51.1988 62.7721 53.7885 57.6927 55.4373C53.4092 56.8766 50.4375 59.5304 46.9779 62.367C44.3316 64.311 41.8445 65.2578 38.7435 66.2459C35.6937 67.4023 33.1123 69.193 30.4193 71.0115C28.7552 71.9998 28.7552 71.9998 26.7552 71.9998C27.4152 73.3198 28.0752 74.6398 28.7552 75.9998C26.2872 74.8481 24.7074 73.952 22.7552 71.9998C23.4643 71.5925 24.1734 71.1853 24.9039 70.7657C41.5636 61.2131 41.5636 61.2131 58.0765 51.4107C73.1953 42.2812 88.5372 33.5101 103.85 24.7122C108.992 21.7573 114.125 18.79 119.229 15.772C121.634 14.351 124.043 12.9375 126.453 11.5244C128.163 10.5176 129.866 9.50011 131.569 8.48245C132.599 7.87973 133.628 7.27702 134.689 6.65604C135.597 6.11785 136.505 5.57967 137.441 5.02518C139.755 3.99979 139.755 3.99979 142.755 4.99979Z" fill="#DDC271"/>
<path d="M293.755 266C298.065 267.288 301.584 268.933 305.38 271.336C306.935 272.314 306.935 272.314 308.521 273.312C309.588 273.993 310.656 274.674 311.755 275.375C312.823 276.048 313.89 276.721 314.99 277.414C319.952 280.55 324.894 283.709 329.755 287C328.267 290.912 326.21 292.263 322.654 294.355C321.613 294.974 320.573 295.593 319.501 296.231C318.388 296.876 317.276 297.522 316.13 298.188C315.002 298.849 313.874 299.511 312.711 300.193C310.446 301.519 308.178 302.84 305.908 304.157C303.168 305.759 300.455 307.394 297.751 309.055C296.357 309.891 294.963 310.727 293.568 311.562C292.953 311.95 292.338 312.338 291.704 312.737C288.788 314.439 287.172 315.068 283.802 314.516C280.065 312.657 276.651 310.518 273.193 308.188C265.549 303.132 257.798 298.279 249.976 293.505C245.091 290.507 240.375 287.393 235.755 284C239.488 282.903 239.488 282.903 241.896 283.777C242.94 284.352 242.94 284.352 244.005 284.938C244.712 285.318 245.418 285.698 246.146 286.09C246.677 286.39 247.208 286.691 247.755 287C247.755 287.66 247.755 288.32 247.755 289C248.477 289.083 249.199 289.165 249.943 289.25C253.345 290.157 255.21 291.6 257.755 294C257.755 294.66 257.755 295.32 257.755 296C258.642 296.103 259.529 296.206 260.443 296.312C263.838 297.017 265.975 297.955 268.755 300C268.755 300.66 268.755 301.32 268.755 302C270.405 302.33 272.055 302.66 273.755 303C273.755 303.99 273.755 304.98 273.755 306C274.869 306.268 275.983 306.536 277.13 306.812C280.755 308 280.755 308 282.755 311C286.13 310.453 287.838 309.945 290.755 308C292.075 308 293.395 308 294.755 308C295.085 307.01 295.415 306.02 295.755 305C298.013 303.5 298.013 303.5 300.88 302C302.371 301.217 302.371 301.217 303.892 300.418C306.141 299.304 308.374 298.267 310.693 297.312C313.742 296.149 313.742 296.149 316.005 294.312C317.755 293 317.755 293 320.755 293C321.25 291.515 321.25 291.515 321.755 290C322.415 290 323.075 290 323.755 290C323.425 288.35 323.095 286.7 322.755 285C321.672 284.907 321.672 284.907 320.568 284.812C317.755 284 317.755 284 315.521 281.711C312.459 278.709 309.428 276.844 305.693 274.812C304.775 274.299 304.775 274.299 303.839 273.775C301.387 272.41 298.952 271.087 296.384 269.949C294.755 269 294.755 269 293.755 266Z" fill="#D7B25E"/>
<path d="M153.755 179C153.755 179.66 153.755 180.32 153.755 181C152.435 181.33 151.115 181.66 149.755 182C149.755 182.99 149.755 183.98 149.755 185C147.241 186.714 144.781 188.213 142.13 189.688C141.361 190.127 140.592 190.566 139.8 191.018C138.219 191.92 136.634 192.817 135.047 193.71C132.966 194.881 130.894 196.065 128.826 197.258C123.828 200.136 118.812 202.977 113.755 205.75C110.281 207.685 106.912 209.572 103.755 212C103.755 212.99 103.755 213.98 103.755 215C104.869 215.454 105.983 215.908 107.13 216.375C110.755 218 110.755 218 112.755 220C113.415 220 114.075 220 114.755 220C114.755 220.66 114.755 221.32 114.755 222C116.075 222 117.395 222 118.755 222C119.085 222.99 119.415 223.98 119.755 225C120.725 225.309 121.694 225.619 122.693 225.938C125.755 227 125.755 227 127.13 229.125C127.336 229.744 127.543 230.362 127.755 231C122.693 230.48 119.17 228.015 115.005 225.312C114.299 224.863 113.594 224.413 112.867 223.95C107.785 220.701 102.735 217.403 97.7552 214C97.8451 212.242 97.8451 212.242 98.7552 210C100.931 208.525 102.995 207.324 105.318 206.125C106.775 205.34 108.23 204.552 109.685 203.762C110.489 203.328 111.293 202.894 112.121 202.447C117.115 199.704 122.025 196.814 126.943 193.938C128.49 193.035 128.49 193.035 130.068 192.115C136.639 188.274 143.142 184.348 149.56 180.258C151.755 179 151.755 179 153.755 179Z" fill="#BC9B50"/>
<path d="M183.755 283C185.979 284.226 187.855 285.442 189.88 286.938C198.116 292.734 206.712 297.898 215.341 303.077C216.569 303.814 217.796 304.552 219.022 305.29C220.67 306.282 222.319 307.27 223.969 308.258C226.337 309.738 228.557 311.282 230.755 313C230.594 314.771 230.594 314.771 229.755 317C227.41 318.831 227.41 318.831 224.329 320.672C223.223 321.336 222.116 322 220.976 322.684C220.396 323.023 219.816 323.362 219.218 323.711C217.45 324.746 215.697 325.803 213.945 326.864C205.285 332 205.285 332 200.755 332C201.085 331.01 201.415 330.02 201.755 329C203.822 328.051 203.822 328.051 206.318 327.313C207.557 326.936 207.557 326.936 208.822 326.551C209.46 326.369 210.098 326.188 210.755 326C210.755 325.34 210.755 324.68 210.755 324C211.743 323.541 212.73 323.082 213.747 322.61C215.042 321.99 216.336 321.371 217.63 320.75C218.281 320.45 218.932 320.15 219.603 319.84C223.356 318.021 225.137 316.819 226.755 313C225.621 312.336 224.486 311.673 223.318 310.989C221.797 310.097 220.276 309.205 218.755 308.313C218.011 307.878 217.268 307.443 216.501 306.994C212.126 304.426 207.818 301.793 203.579 299.005C201.652 297.943 199.904 297.438 197.755 297C197.755 296.34 197.755 295.68 197.755 295C197.157 294.897 196.559 294.794 195.943 294.688C193.416 293.894 192.602 292.847 190.755 291C188.156 289.81 188.156 289.81 185.755 289C185.755 288.34 185.755 287.68 185.755 287C180.415 285.63 177.607 285.689 172.775 288.457C171.026 289.554 169.29 290.674 167.568 291.813C165.826 292.926 164.083 294.037 162.337 295.145C161.576 295.643 160.816 296.142 160.032 296.656C157.674 298.048 155.319 299.049 152.755 300C152.755 299.34 152.755 298.68 152.755 298C156.062 295.589 159.596 293.541 163.107 291.441C164.861 290.387 166.601 289.312 168.341 288.235C169.45 287.567 170.558 286.899 171.701 286.211C172.717 285.595 173.732 284.98 174.779 284.345C178.087 282.85 180.167 282.616 183.755 283Z" fill="#E6C773"/>
<path d="M221.755 222C226.754 222.349 229.761 224.052 233.755 227C233.095 227.33 232.435 227.66 231.755 228C230.827 227.505 229.899 227.01 228.943 226.5C225.302 224.787 224.484 224.818 220.755 226C218.041 227.734 218.041 227.734 215.38 229.875C211.264 232.972 207.543 235.068 202.755 237C195.24 240.427 195.24 240.427 189.755 246C188.765 246.464 188.765 246.464 187.755 246.938C185.409 247.889 185.409 247.889 184.755 251C185.415 251 186.075 251 186.755 251C186.755 251.66 186.755 252.32 186.755 253C187.518 253.103 188.281 253.206 189.068 253.312C192.094 254.087 192.614 254.858 194.755 257C197.047 258.138 199.372 259.056 201.755 260C201.755 260.66 201.755 261.32 201.755 262C202.61 262.153 202.61 262.153 203.482 262.309C206.183 263.13 207.872 264.371 210.13 266.062C214.907 269.515 219.854 272.43 225.02 275.246C227.984 276.885 230.532 278.418 232.755 281C229.394 281 228.294 280.376 225.431 278.727C224.575 278.236 223.719 277.746 222.837 277.241C221.923 276.708 221.009 276.174 220.068 275.625C218.658 274.811 218.658 274.811 217.221 273.98C209.542 269.517 201.983 264.884 194.499 260.102C192.811 259.035 191.104 258 189.396 256.965C188.401 256.358 187.406 255.751 186.38 255.125C185.527 254.612 184.674 254.099 183.794 253.57C181.599 251.879 180.761 250.553 179.755 248C190.597 241.133 201.561 234.483 212.587 227.916C213.631 227.293 214.675 226.669 215.751 226.027C216.692 225.468 217.632 224.908 218.601 224.332C220.657 223.175 220.657 223.175 221.755 222Z" fill="#B78E44"/>
<path d="M148.755 59C148.755 59.99 148.755 60.98 148.755 62C147.28 62.7657 147.28 62.7657 145.775 63.5469C134.976 69.1879 124.385 75.1491 113.829 81.2314C108.512 84.2906 103.186 87.3336 97.8606 90.3769C96.0519 91.4108 94.2437 92.4457 92.4357 93.4807C91.3088 94.1252 90.1819 94.7696 89.0209 95.4336C87.417 96.3518 87.417 96.3518 85.7806 97.2886C82.3339 99.2383 78.8559 101.125 75.3558 102.977C73.5828 103.918 73.5828 103.918 72.7552 106C71.7652 105.67 70.7752 105.34 69.7552 105C69.7552 103.68 69.7552 102.36 69.7552 101C72.0646 100.062 74.3635 99.1311 76.7279 98.3398C81.134 96.8327 83.4834 95.371 86.7552 92C88.7918 90.7334 90.8842 89.6149 93.0013 88.4883C95.6643 87.0492 98.2722 85.5311 100.882 83.9978C106.384 80.7766 111.806 77.9432 117.865 75.8867C120.106 75.0344 120.106 75.0344 121.755 72C123.822 71.043 123.822 71.043 126.318 70.1875C130.944 68.4537 134.733 66.2259 138.747 63.3672C140.693 62.0426 142.63 61.0046 144.755 60C146.755 59 146.755 59 148.755 59Z" fill="#E1C16D"/>
<path d="M200.755 209C204.111 209.599 206.133 210.846 208.755 213C207.355 216.471 206.039 217.727 202.704 219.375C201.454 220.008 201.454 220.008 200.178 220.654C199.276 221.098 198.373 221.542 197.443 222C195.532 222.969 193.623 223.942 191.716 224.918C190.24 225.673 190.24 225.673 188.735 226.443C183.944 228.947 179.253 231.617 174.568 234.312C173.733 234.791 172.898 235.27 172.037 235.764C166.966 238.687 161.957 241.695 156.988 244.79C154.785 245.984 153.25 246.779 150.755 247C148.513 246.044 148.513 246.044 146.095 244.543C144.781 243.74 144.781 243.74 143.441 242.92C142.534 242.348 141.627 241.777 140.693 241.188C139.327 240.347 139.327 240.347 137.933 239.49C134.505 237.376 131.107 235.234 127.755 233C127.755 232.34 127.755 231.68 127.755 231C132.568 230.434 135 232.098 138.755 235C139.085 235.66 139.415 236.32 139.755 237C140.9 237.433 140.9 237.433 142.068 237.875C144.755 239 144.755 239 146.693 241.125C148.653 243.23 148.653 243.23 151.568 243.562C155.312 242.902 157.229 241.542 160.142 239.191C161.755 238 161.755 238 164.755 237C165.085 236.34 165.415 235.68 165.755 235C167.513 234.246 167.513 234.246 169.88 233.438C175.349 231.352 180.103 228.505 185.053 225.431C190.071 222.336 195.167 219.781 200.56 217.387C202.897 216.195 202.897 216.195 203.665 213.941C203.978 211.873 203.978 211.873 202.318 210.25C201.802 209.837 201.286 209.425 200.755 209Z" fill="#BF9748"/>
<path d="M236.755 57C243.499 58.124 243.499 58.124 246.513 60.125C247.208 60.5762 247.903 61.0273 248.619 61.4922C249.365 61.9898 250.111 62.4873 250.88 63C256.907 66.93 262.973 70.7619 269.158 74.4375C269.791 74.8151 270.424 75.1927 271.076 75.5818C273.62 77.0996 276.165 78.6172 278.721 80.1162C280.52 81.1726 282.312 82.2413 284.103 83.3125C285.145 83.9274 286.186 84.5423 287.259 85.1758C289.757 87.0016 290.708 88.135 291.755 91C290.435 90.67 289.115 90.34 287.755 90C287.755 89.34 287.755 88.68 287.755 88C286.435 88 285.115 88 283.755 88C283.755 87.34 283.755 86.68 283.755 86C282.765 86 281.775 86 280.755 86C280.755 85.34 280.755 84.68 280.755 84C280.219 83.8969 279.683 83.7938 279.13 83.6875C276.105 82.8118 273.505 81.5275 270.755 80C270.26 79.01 270.26 79.01 269.755 78C264.575 74.7244 264.575 74.7244 258.755 73C258.755 72.34 258.755 71.68 258.755 71C258.095 71 257.435 71 256.755 71C256.755 70.34 256.755 69.68 256.755 69C256.182 68.8853 255.608 68.7705 255.017 68.6523C252.548 67.9404 250.735 66.9331 248.568 65.5625C247.873 65.1307 247.178 64.6988 246.462 64.2539C244.755 63 244.755 63 243.755 61C241.822 59.9083 241.822 59.9083 239.755 59C239.095 58.67 238.435 58.34 237.755 58C237.755 77.14 237.755 96.28 237.755 116C238.745 116.33 239.735 116.66 240.755 117C239.105 117 237.455 117 235.755 117C236.25 87.3 236.25 87.3 236.755 57Z" fill="#A37D38"/>
<path d="M67.7552 251C69.9427 250.688 69.9427 250.688 72.7552 251C73.4681 251.721 74.181 252.441 74.9154 253.184C78.3179 256.558 81.9412 258.874 86.0052 261.375C86.8244 261.886 87.6436 262.397 88.4877 262.924C96.419 267.848 104.438 272.626 112.455 277.409C121.302 282.697 130.03 288.157 138.717 293.704C142.05 295.823 145.402 297.912 148.755 300C147.27 300.495 147.27 300.495 145.755 301C143.722 299.718 141.724 298.378 139.755 297C138.868 296.649 137.981 296.299 137.068 295.938C134.755 295 134.755 295 133.38 293.562C130.882 291.16 127.965 290.272 124.755 289C124.755 288.34 124.755 287.68 124.755 287C123.765 287 122.775 287 121.755 287C121.755 286.34 121.755 285.68 121.755 285C120.765 284.794 119.775 284.588 118.755 284.375C114.802 283.252 112.197 281.202 109.021 278.664C104.887 275.628 100.3 273.356 95.7552 271C95.7552 270.34 95.7552 269.68 95.7552 269C94.88 268.742 94.0047 268.484 93.1029 268.219C89.7316 266.991 87.1632 265.494 84.1927 263.5C81.5112 261.705 79.0878 260.132 76.0873 258.938C72.3327 257.428 69.5605 254.611 67.7552 251Z" fill="#B28D42"/>
<path d="M24.7552 165C25.0852 165 25.4152 165 25.7552 165C26.4152 167.64 27.0752 170.28 27.7552 173C15.732 184 15.732 184 9.75525 184C9.4665 184.639 9.17775 185.279 8.88025 185.938C7.75525 188 7.75525 188 5.75525 189C5.42525 196.59 5.09525 204.18 4.75525 212C3.27025 212.495 3.27025 212.495 1.75525 213C1.66831 208.896 1.61488 204.792 1.56775 200.688C1.54261 199.52 1.51748 198.353 1.49158 197.15C1.47708 195.473 1.47708 195.473 1.46228 193.762C1.44657 192.73 1.43086 191.698 1.41467 190.635C1.75525 188 1.75525 188 3.02722 186.291C4.86406 184.919 6.70533 183.727 8.69666 182.59C9.44496 182.157 10.1933 181.725 10.9642 181.279C11.7409 180.837 12.5176 180.394 13.3177 179.938C14.8623 179.054 16.4054 178.167 17.9467 177.277C18.6293 176.888 19.3119 176.499 20.0153 176.097C21.9115 174.991 21.9115 174.991 23.7552 173C24.2134 171.028 24.2134 171.028 24.3802 168.875C24.504 167.596 24.6277 166.317 24.7552 165Z" fill="#D1AD5A"/>
<path d="M120.755 200C115.579 203.223 115.579 203.223 113.755 204C112.765 203.67 111.775 203.34 110.755 203C117.38 198.875 117.38 198.875 120.755 200ZM110.755 204C110.755 204.66 110.755 205.32 110.755 206C110.117 206.326 109.479 206.652 108.822 206.988C107.995 207.425 107.169 207.862 106.318 208.312C105.494 208.742 104.67 209.171 103.822 209.613C101.449 210.9 101.449 210.9 100.755 214C101.838 214.433 101.838 214.433 102.943 214.875C103.871 215.246 104.799 215.617 105.755 216C107.086 216.495 107.086 216.495 108.443 217C110.755 218 110.755 218 112.755 220C113.415 220 114.075 220 114.755 220C114.755 220.66 114.755 221.32 114.755 222C116.075 222 117.395 222 118.755 222C119.085 222.99 119.415 223.98 119.755 225C120.725 225.309 121.694 225.619 122.693 225.937C125.755 227 125.755 227 127.13 229.125C127.336 229.744 127.543 230.362 127.755 231C122.693 230.48 119.17 228.015 115.005 225.312C114.299 224.863 113.594 224.413 112.867 223.95C107.785 220.701 102.735 217.403 97.7552 214C97.9467 212.203 97.9467 212.203 98.7552 210C100.97 208.297 100.97 208.297 103.693 206.75C105.037 205.969 105.037 205.969 106.408 205.172C108.755 204 108.755 204 110.755 204Z" fill="#C8A251"/>
<path d="M65.7552 49.9999C64.6583 50.6754 63.5613 51.3509 62.431 52.0468C60.9765 52.9477 59.5221 53.8487 58.0677 54.7499C56.9859 55.4151 56.9859 55.4151 55.8822 56.0937C52.7712 58.0256 49.8315 59.9385 46.974 62.2382C44.8971 63.8873 43.4427 64.6743 40.9427 65.4374C37.0319 66.7732 33.8346 68.7053 30.4193 71.0117C28.7552 71.9999 28.7552 71.9999 26.7552 71.9999C27.4152 73.3199 28.0752 74.6399 28.7552 75.9999C26.2872 74.8482 24.7074 73.9521 22.7552 71.9999C23.4748 71.5874 24.1943 71.1749 24.9357 70.7499C27.667 69.1828 30.3974 67.614 33.127 66.0439C34.3339 65.35 35.5412 64.6566 36.7487 63.9638C44.4436 59.5475 52.0563 55.0577 59.4349 50.1249C62.1713 48.7982 62.9519 49.138 65.7552 49.9999Z" fill="#E4C774"/>
<path d="M149.755 61C152.767 61.6445 155.272 62.6502 158.005 64.0625C158.712 64.4247 159.418 64.787 160.146 65.1602C160.677 65.4373 161.208 65.7145 161.755 66C161.755 66.66 161.755 67.32 161.755 68C162.456 68.2681 163.158 68.5363 163.88 68.8125C166.92 70.0681 169.828 71.5024 172.755 73C172.755 73.66 172.755 74.32 172.755 75C173.848 75.4119 173.848 75.4119 174.962 75.832C183.208 79.2801 190.536 84.8083 197.755 90C196.765 90.495 196.765 90.495 195.755 91C193.994 90.2024 193.994 90.2024 191.853 88.8945C191.054 88.4112 190.255 87.9279 189.432 87.4299C188.569 86.8962 187.707 86.3624 186.818 85.8125C185.488 85.0012 185.488 85.0012 184.131 84.1736C181.333 82.4599 178.543 80.7325 175.755 79C174.867 78.4489 173.98 77.8979 173.065 77.3301C170.52 75.7466 167.98 74.1569 165.443 72.5625C164.674 72.0795 163.905 71.5965 163.113 71.0989C158.55 68.207 154.081 65.2397 149.755 62C149.755 61.67 149.755 61.34 149.755 61Z" fill="#DEB864"/>
<path d="M127.755 231C132.568 230.434 135 232.098 138.755 235C139.085 235.66 139.415 236.32 139.755 237C140.518 237.289 141.281 237.578 142.068 237.875C144.755 239 144.755 239 146.568 241.063C149.79 243.917 152.512 243.717 156.755 244C154.571 246.184 153.772 246.692 150.755 247C148.513 246.044 148.513 246.044 146.095 244.543C145.219 244.007 144.343 243.472 143.441 242.92C142.534 242.348 141.627 241.777 140.693 241.188C139.782 240.627 138.871 240.067 137.933 239.49C134.505 237.376 131.107 235.234 127.755 233C127.755 232.34 127.755 231.68 127.755 231Z" fill="#C8A14F"/>
<path d="M153.755 180C156.939 180.639 159.296 181.758 162.064 183.441C162.888 183.939 163.712 184.437 164.561 184.95C165.429 185.482 166.298 186.014 167.193 186.562C168.081 187.102 168.968 187.642 169.883 188.199C171.67 189.287 173.456 190.376 175.241 191.468C177.473 192.828 179.714 194.171 181.962 195.504C183.143 196.211 184.324 196.918 185.505 197.625C186.531 198.236 187.557 198.847 188.615 199.477C189.321 199.979 190.027 200.482 190.755 201C190.755 201.66 190.755 202.32 190.755 203C186.755 203 186.755 203 185.193 201.562C184.718 201.047 184.244 200.531 183.755 200C182.765 199.67 181.775 199.34 180.755 199C179.738 198.017 178.739 197.016 177.755 196C176.609 195.196 175.436 194.429 174.244 193.695C173.567 193.276 172.891 192.857 172.195 192.426C171.493 191.997 170.791 191.567 170.068 191.125C168.689 190.273 167.31 189.422 165.931 188.57C163.775 187.241 161.617 185.916 159.452 184.601C158.721 184.152 157.989 183.704 157.236 183.242C156.234 182.633 156.234 182.633 155.213 182.011C154.732 181.678 154.251 181.344 153.755 181C153.755 180.67 153.755 180.34 153.755 180Z" fill="#B89346"/>
<path d="M24.7552 165C25.0852 165 25.4152 165 25.7552 165C26.4152 167.64 27.0752 170.28 27.7552 173C15.732 184 15.732 184 9.75525 184C9.75525 184.66 9.75525 185.32 9.75525 186C8.95087 186.289 8.1465 186.577 7.31775 186.875C4.6226 187.733 4.6226 187.733 3.75525 190C3.09525 190 2.43525 190 1.75525 190C2.1051 187.317 2.41382 186.268 4.58118 184.568C5.35921 184.141 6.13724 183.714 6.93884 183.273C7.78382 182.799 8.6288 182.325 9.49939 181.836C10.3882 181.354 11.277 180.872 12.1927 180.375C13.9429 179.406 15.6917 178.435 17.4388 177.461C18.218 177.036 18.9972 176.611 19.7999 176.173C21.8907 175.026 21.8907 175.026 23.7552 173C24.2134 171.028 24.2134 171.028 24.3802 168.875C24.504 167.596 24.6277 166.317 24.7552 165Z" fill="#D3B461"/>
<path d="M149.172 0.737853C151.696 1.97131 154.033 3.30713 156.4 4.82037C157.661 5.62281 157.661 5.62281 158.949 6.44147C159.813 6.99705 160.677 7.55264 161.568 8.12506C162.451 8.68838 163.335 9.2517 164.245 9.83209C166.418 11.2177 168.588 12.6071 170.755 14.0001C167.65 14.984 166.949 15.0767 163.755 13.8126C160.921 12.1003 159.075 10.3198 156.755 8.00006C155.099 7.30692 153.434 6.63532 151.755 6.00006C151.425 5.34006 151.095 4.68006 150.755 4.00006C147.726 3.34234 147.726 3.34234 144.755 3.00006C144.095 4.32006 143.435 5.64006 142.755 7.00006C141.765 6.67006 140.775 6.34006 139.755 6.00006C140.415 5.67006 141.075 5.34006 141.755 5.00006C141.425 4.34006 141.095 3.68006 140.755 3.00006C146.065 -0.210603 146.065 -0.210603 149.172 0.737853Z" fill="#D7B563"/>
<path d="M86.7552 95C86.7552 95.66 86.7552 96.32 86.7552 97C85.8284 97.4821 84.9016 97.9642 83.9467 98.4609C82.7369 99.0987 81.5272 99.7367 80.3177 100.375C79.7061 100.692 79.0944 101.009 78.4642 101.336C75.0029 103.023 75.0029 103.023 72.7552 106C71.7652 105.67 70.7752 105.34 69.7552 105C69.7552 103.68 69.7552 102.36 69.7552 101C70.3946 100.753 71.034 100.505 71.6927 100.25C75.0698 98.8716 78.3656 97.3494 81.6693 95.8047C83.7552 95 83.7552 95 86.7552 95Z" fill="#E5C87F"/>
<path d="M170.755 15C174.99 16.5311 178.747 18.6489 182.568 21C183.165 21.3558 183.763 21.7116 184.378 22.0781C185.874 22.9944 187.32 23.9914 188.755 25C188.755 25.66 188.755 26.32 188.755 27C184.415 25.9353 181.824 25.1786 178.755 22C176.672 20.6579 174.544 19.424 172.4 18.1836C171.857 17.793 171.314 17.4024 170.755 17C170.755 16.34 170.755 15.68 170.755 15Z" fill="#D7B560"/>
<path d="M69.7552 241C70.4152 241 71.0752 241 71.7552 241C73.3625 244.215 72.8127 247.436 72.7552 251C71.7652 251.33 70.7752 251.66 69.7552 252C69.0952 251.67 68.4352 251.34 67.7552 251C68.4152 247.7 69.0752 244.4 69.7552 241Z" fill="#D2AB5B"/>
<path d="M67.7552 105C69.4052 105.33 71.0552 105.66 72.7552 106C72.7552 110.95 72.7552 115.9 72.7552 121C72.4252 121 72.0952 121 71.7552 121C71.6109 119.927 71.4665 118.855 71.3177 117.75C70.8609 114.215 70.8609 114.215 70.1302 111.688C69.7552 110 69.7552 110 70.7552 108C69.4352 107.34 68.1152 106.68 66.7552 106C67.0852 105.67 67.4152 105.34 67.7552 105Z" fill="#B99851"/>
<path d="M35.7552 67C32.9022 69.3247 30.2145 70.7508 26.7552 72C27.4152 73.32 28.0752 74.64 28.7552 76C26.2872 74.8483 24.7074 73.9522 22.7552 72C24.3515 70.9668 25.9575 69.9488 27.5677 68.9375C28.4611 68.369 29.3544 67.8006 30.2748 67.2148C32.7552 66 32.7552 66 35.7552 67Z" fill="#E0CA84"/>
<path d="M293.755 266C298.37 267.319 301.854 269.214 305.755 272C302.755 273 302.755 273 300.747 272.328C300.049 271.972 299.35 271.617 298.63 271.25C297.926 270.905 297.223 270.559 296.497 270.203C294.755 269 294.755 269 293.755 266Z" fill="#D7B25C"/>
<path d="M148.755 0C148.755 0.99 148.755 1.98 148.755 3C147.435 3 146.115 3 144.755 3C144.095 4.32 143.435 5.64 142.755 7C141.765 6.67 140.775 6.34 139.755 6C140.415 5.67 141.075 5.34 141.755 5C141.425 4.34 141.095 3.68 140.755 3C146.505 0 146.505 0 148.755 0Z" fill="#DBBA6B"/>
<path d="M10.7552 184C9.36534 186.78 7.56867 186.875 4.75525 188C4.42525 188.66 4.09525 189.32 3.75525 190C3.09525 190 2.43525 190 1.75525 190C1.94275 188.187 1.94275 188.187 2.75525 186C7.01125 182.752 7.01125 182.752 10.7552 184Z" fill="#DAB867"/>
<path d="M325.755 286C327.735 286.495 327.735 286.495 329.755 287C329.095 288.32 328.435 289.64 327.755 291C326.765 290.67 325.775 290.34 324.755 290C325.085 288.68 325.415 287.36 325.755 286Z" fill="#E3BC5E"/>
</svg>
